<svg id="Layer_1" data-name="Layer 1" xmlns="http://www.w3.org/2000/svg" viewBox="0 0 477.54 395.53"><defs><style>.cls-1{fill:#cfbef5;}</style></defs><path class="cls-1" d="M1077.89,249.42l-267,41.43c-49.94,7.74-84.08,54.08-76.25,103.49h0l27.41,172.94c7.83,49.41,54.66,83.19,104.6,75.45h0l267-41.43c49.95-7.73,84.1-54.06,76.29-103.47v0l-27.41-172.94c-7.82-49.42-54.65-83.2-104.59-75.45Zm36.6,198.88c7.84,49.41-26.3,95.75-76.24,103.5h0l-95.9,14.84c-49.94,7.75-96.77-26-104.6-75.43h0l-6.1-38.51c-7.83-49.41,26.3-95.75,76.24-103.5h0l95.9-14.85c49.94-7.75,96.78,26,104.61,75.44h0Z" transform="translate(-733.52 -248.31)"/></svg>