<svg xmlns="http://www.w3.org/2000/svg" xmlns:xlink="http://www.w3.org/1999/xlink" viewBox="0 0 912.23 778.08">
    <defs>
        <style>
            .cls-1{fill:url(#linear-gradient);}
        </style>
        <linearGradient id="linear-gradient" x1="456.12" y1="778.08" x2="456.12" gradientUnits="userSpaceOnUse">
            <stop offset="0" stop-color="#ec2d87"/>
            <stop offset="0.01" stop-color="#eb2d86"/>
            <stop offset="0.45" stop-color="#c02977"/>
            <stop offset="0.8" stop-color="#a6266e"/>
            <stop offset="1" stop-color="#9c256a"/>
        </linearGradient>
    </defs>
        <title>Asset 4</title>
        <g id="Layer_2" data-name="Layer 2">
            <g id="Layer_1-2" data-name="Layer 1">
                <path class="cls-1" d="M2,2.08,471.18.86C592-8.92,642,67.08,632,103.08c-43.31,100-14.39,117.4,66,39,80-43,73.25,74.12,66,90-19.73,66.66,44.81,73,60,75,40,4,31.44,62.16,27,69,2,22.68,38.42,18.15,45,15,25-2,18,29,0,33-54.73,9.32-43,34-36,57,25.65,62.31-47.87,55.36-87,42-89-26-65,30-24,63,45.29,46.28-38,64-65.81,56.85C616,649.08,614,687.08,629,726.08c20,35.39-20.87,52.92-33,46l-596,6Z"/>
            </g>
        </g>
</svg>