<svg xmlns="http://www.w3.org/2000/svg" viewBox="0 0 940 768"><defs><style>.cls-1{fill:#d38dbc;}</style></defs><title>Asset 6</title><g id="Layer_2" data-name="Layer 2"><g id="Layer_1-2" data-name="Layer 1"><path class="cls-1" d="M2.06,2.05,485.53.85C610-8.8,661.54,66.21,651.24,101.74c-44.63,98.69-14.83,115.88,68,38.5,82.43-42.44,75.48,73.16,68,88.83-20.33,65.8,46.17,72.06,61.82,74,41.22,3.95,32.4,61.36,27.83,68.11,2,22.38,39.59,17.91,46.37,14.8,25.76-2,18.54,28.63,0,32.58-56.4,9.2-44.31,33.56-37.1,56.26,26.43,61.5-49.33,54.64-89.65,41.45-91.71-25.66-67,29.61-24.73,62.19,46.67,45.68-39.16,63.17-67.81,56.11-69.24,6.07-71.3,43.58-55.84,82.07,20.56,34.93-21.51,52.24-34,45.41L0,768Z"/></g></g></svg>